<?xml version="1.0" encoding="UTF-8" standalone="no"?><!-- Generator: Gravit.io --><svg xmlns="http://www.w3.org/2000/svg" xmlns:xlink="http://www.w3.org/1999/xlink" style="isolation:isolate" viewBox="482 212 269 269" width="269pt" height="269pt"><defs><clipPath id="_clipPath_q0YIncg1jlo8AQn5MBRSsbBuJRh84BC6"><rect x="482" y="212" width="269" height="269"/></clipPath></defs><g clip-path="url(#_clipPath_q0YIncg1jlo8AQn5MBRSsbBuJRh84BC6)"><path d="M 541.18 212 L 691.82 212 C 724.482 212 751 238.518 751 271.18 L 751 421.82 C 751 454.482 724.482 481 691.82 481 L 541.18 481 C 508.518 481 482 454.482 482 421.82 L 482 271.18 C 482 238.518 508.518 212 541.18 212 Z" style="stroke:none;fill:#444341;stroke-miterlimit:10;"/><path d="M 554.38 330.73 L 678.62 330.73 C 687.108 330.73 694 337.624 694 346.114 L 694 346.886 C 694 355.376 687.108 362.27 678.62 362.27 L 554.38 362.27 C 545.892 362.27 539 355.376 539 346.886 L 539 346.114 C 539 337.624 545.892 330.73 554.38 330.73 Z" style="stroke:none;fill:#EBEBDF;stroke-miterlimit:10;"/><path d="M 632.27 284.38 L 632.27 408.62 C 632.27 417.108 625.376 424 616.886 424 L 616.114 424 C 607.624 424 600.73 417.108 600.73 408.62 L 600.73 284.38 C 600.73 275.892 607.624 269 616.114 269 L 616.886 269 C 625.376 269 632.27 275.892 632.27 284.38 Z" style="stroke:none;fill:#EBEBDF;stroke-miterlimit:10;"/></g></svg>