<?xml version="1.0" encoding="UTF-8" standalone="no"?><!-- Generator: Gravit.io --><svg xmlns="http://www.w3.org/2000/svg" xmlns:xlink="http://www.w3.org/1999/xlink" style="isolation:isolate" viewBox="1084 410.037 44.997 46.564" width="44.997pt" height="46.564pt"><path d=" M 1115.75 410.041 C 1114.442 410.104 1113.431 411.253 1113.492 412.606 C 1113.553 413.959 1114.663 415.005 1115.971 414.942 L 1120.892 414.942 L 1110.754 425.472 C 1110.047 426.059 1109.726 427.013 1109.93 427.927 C 1110.134 428.846 1110.823 429.559 1111.711 429.77 C 1112.594 429.981 1113.516 429.649 1114.084 428.917 L 1124.26 418.427 L 1124.26 423.519 C 1124.246 424.405 1124.694 425.222 1125.435 425.668 C 1126.171 426.118 1127.085 426.118 1127.822 425.668 C 1128.561 425.225 1129.011 424.403 1128.996 423.519 L 1128.996 410.041 L 1115.971 410.041 C 1115.897 410.036 1115.823 410.036 1115.749 410.041 L 1115.75 410.041 Z  M 1100.54 436.959 C 1099.921 436.984 1099.337 437.259 1098.912 437.724 L 1088.737 448.215 L 1088.737 443.123 C 1088.747 442.46 1088.497 441.821 1088.044 441.352 C 1087.59 440.883 1086.973 440.624 1086.332 440.634 C 1086.258 440.63 1086.184 440.63 1086.109 440.634 C 1084.89 440.773 1083.974 441.853 1084.001 443.123 L 1084.001 456.601 L 1097.026 456.601 C 1097.88 456.616 1098.675 456.15 1099.103 455.385 C 1099.537 454.623 1099.537 453.677 1099.103 452.915 C 1098.675 452.15 1097.88 451.685 1097.026 451.7 L 1092.105 451.7 L 1102.243 441.17 C 1102.946 440.469 1103.159 439.393 1102.779 438.462 C 1102.404 437.532 1101.515 436.935 1100.541 436.959 L 1100.54 436.959 Z " fill="rgb(0,0,0)"/></svg>