<?xml version="1.0" encoding="UTF-8" standalone="no"?><!-- Generator: Gravit.io --><svg xmlns="http://www.w3.org/2000/svg" xmlns:xlink="http://www.w3.org/1999/xlink" style="isolation:isolate" viewBox="244 75 813 813" width="813pt" height="813pt"><g><circle vector-effect="non-scaling-stroke" cx="650.4999999999998" cy="481.49999999999994" r="406.4999999999999" fill="rgb(67,67,65)"/><path d=" M 493.605 538.553 Q 352.915 523.024 291.896 361.403 L 265.395 476.067 L 304.199 644.346 Q 368.145 751.965 456.578 791.081 Q 545.011 830.197 550.278 816.755 Q 634.296 554.081 493.605 538.553 Z " fill="rgb(236,234,225)"/><path d=" M 700.421 524.289 Q 794.458 395.312 700.421 162.758 Q 1051.402 366.827 1007.079 545.684 C 962.756 724.541 895.768 767.262 788.676 812.175 Q 681.584 857.089 572.053 852.291 Q 606.384 653.267 700.421 524.289 Z " fill="rgb(236,234,225)"/><mask id="_mask_NAuwEDxDSTAjnbnsX6TnH9EPPz4IomLB"><circle vector-effect="non-scaling-stroke" cx="650.4999999999998" cy="481.49999999999994" r="406.4999999999999" fill="white" stroke="none"/></mask><circle vector-effect="non-scaling-stroke" cx="650.4999999999998" cy="481.49999999999994" r="406.4999999999999" fill="none"/><circle vector-effect="non-scaling-stroke" cx="650.4999999999998" cy="481.49999999999994" r="406.4999999999999" fill="none" mask="url(#_mask_NAuwEDxDSTAjnbnsX6TnH9EPPz4IomLB)" stroke-width="80" stroke="rgb(67,67,65)" stroke-linejoin="miter" stroke-linecap="square" stroke-miterlimit="3"/><path d=" M 914.368 574.211 Q 913.164 491.533 857.316 388.789 Q 913.164 457.234 935.763 559.947 Q 958.362 662.661 942.895 723.974 L 892.974 766.803 Q 915.572 656.888 914.368 574.211 Z " fill="rgb(67,67,65)"/></g></svg>