<?xml version="1.0" encoding="UTF-8" standalone="no"?><!-- Generator: Gravit.io --><svg xmlns="http://www.w3.org/2000/svg" xmlns:xlink="http://www.w3.org/1999/xlink" style="isolation:isolate" viewBox="1084 613.037 44.997 46.564" width="44.997pt" height="46.564pt"><path d=" M 1089.88 639.81 C 1088.572 639.873 1087.562 641.021 1087.623 642.375 C 1087.684 643.728 1088.794 644.774 1090.102 644.711 L 1095.023 644.711 L 1084.884 655.24 C 1084.177 655.827 1083.857 656.782 1084.06 657.696 C 1084.264 658.615 1084.953 659.328 1085.841 659.539 C 1086.725 659.749 1087.647 659.418 1088.214 658.686 L 1098.39 648.195 L 1098.39 653.287 C 1098.376 654.173 1098.825 654.991 1099.565 655.437 C 1100.301 655.887 1101.216 655.887 1101.952 655.437 C 1102.691 654.994 1103.141 654.171 1103.127 653.287 L 1103.127 639.81 L 1090.102 639.81 C 1090.027 639.805 1089.953 639.805 1089.879 639.81 L 1089.88 639.81 Z  M 1126.571 613.038 C 1125.953 613.063 1125.368 613.338 1124.943 613.804 L 1114.768 624.294 L 1114.768 619.202 C 1114.778 618.539 1114.528 617.9 1114.075 617.431 C 1113.622 616.962 1113.004 616.703 1112.363 616.714 C 1112.289 616.709 1112.215 616.709 1112.141 616.714 C 1110.921 616.853 1110.006 617.933 1110.032 619.202 L 1110.032 632.68 L 1123.057 632.68 C 1123.911 632.695 1124.706 632.23 1125.134 631.465 C 1125.569 630.703 1125.569 629.756 1125.134 628.995 C 1124.706 628.229 1123.911 627.764 1123.057 627.779 L 1118.136 627.779 L 1128.274 617.249 C 1128.977 616.548 1129.19 615.472 1128.811 614.541 C 1128.435 613.611 1127.547 613.014 1126.573 613.038 L 1126.571 613.038 Z " fill-rule="evenodd" fill="rgb(0,0,0)"/></svg>