<?xml version="1.0" encoding="UTF-8" standalone="no"?><!-- Generator: Gravit.io --><svg xmlns="http://www.w3.org/2000/svg" xmlns:xlink="http://www.w3.org/1999/xlink" style="isolation:isolate" viewBox="77 287.378 45.796 45.824" width="45.796pt" height="45.824pt"><path d=" M 116.065 294.109 C 111.784 289.798 105.959 287.375 99.884 287.378 C 87.225 287.378 77 297.632 77 310.29 C 77 322.949 87.225 333.203 99.884 333.203 C 110.566 333.203 119.473 325.899 122.022 316.019 L 116.065 316.019 C 113.647 322.883 107.161 327.475 99.884 327.475 C 90.404 327.475 82.699 319.77 82.699 310.29 C 82.699 300.811 90.404 293.106 99.884 293.106 C 104.638 293.106 108.877 295.083 111.97 298.204 L 102.748 307.426 L 122.796 307.426 L 122.796 287.378 L 116.065 294.109 Z " fill="rgb(68,67,65)"/></svg>