<?xml version="1.0" encoding="UTF-8" standalone="no"?><!-- Generator: Gravit.io --><svg xmlns="http://www.w3.org/2000/svg" xmlns:xlink="http://www.w3.org/1999/xlink" style="isolation:isolate" viewBox="944 169.601 66 66" width="66pt" height="66pt"><g><circle vector-effect="non-scaling-stroke" cx="976.9999999999986" cy="202.60106429485492" r="33" fill="rgb(67,67,65)"/><mask id="_mask_fW4Gg4R2FvOT8q93tmd2T5BSaJZokw4U"><path d=" M 966.311 211.628 C 960.701 206.018 960.564 197.047 966.005 191.606 C 971.446 186.165 980.417 186.302 986.027 191.912 C 991.637 197.522 991.774 206.493 986.333 211.934 C 980.892 217.375 971.921 217.238 966.311 211.628 Z " fill="white" stroke="none"/></mask><path d=" M 966.311 211.628 C 960.701 206.018 960.564 197.047 966.005 191.606 C 971.446 186.165 980.417 186.302 986.027 191.912 C 991.637 197.522 991.774 206.493 986.333 211.934 C 980.892 217.375 971.921 217.238 966.311 211.628 Z " fill="none"/><path d=" M 966.311 211.628 C 960.701 206.018 960.564 197.047 966.005 191.606 C 971.446 186.165 980.417 186.302 986.027 191.912 C 991.637 197.522 991.774 206.493 986.333 211.934 C 980.892 217.375 971.921 217.238 966.311 211.628 Z " fill="none" mask="url(#_mask_fW4Gg4R2FvOT8q93tmd2T5BSaJZokw4U)" vector-effect="non-scaling-stroke" stroke-width="5" stroke="rgb(236,234,225)" stroke-linejoin="miter" stroke-linecap="square" stroke-miterlimit="3"/><line x1="986.333" y1="211.934" x2="991.21" y2="216.811" vector-effect="non-scaling-stroke" stroke-width="3" stroke="rgb(236,234,225)" stroke-linejoin="miter" stroke-linecap="square" stroke-miterlimit="3"/></g></svg>